<mxfile host="app.diagrams.net" agent="Mozilla/5.0 (Windows NT 10.0; Win64; x64) AppleWebKit/537.36 (KHTML, like Gecko) Chrome/134.0.0.0 Safari/537.36" version="26.2.14">
  <diagram name="Page-1" id="o2QyeEha-wYxtj7abMiA">
    <mxGraphModel dx="1281" dy="535" grid="1" gridSize="10" guides="1" tooltips="1" connect="1" arrows="1" fold="1" page="1" pageScale="1" pageWidth="827" pageHeight="1169" math="0" shadow="0">
      <root>
        <mxCell id="0" />
        <mxCell id="1" parent="0" />
        <mxCell id="UebQi7isb6y4DzTPKjI_-8" value="&lt;p style=&quot;margin: 4px 0px 0px; text-align: center;&quot;&gt;&lt;b&gt;Recruteur&lt;/b&gt;&lt;/p&gt;&lt;hr style=&quot;border-style:solid;&quot;&gt;&lt;p style=&quot;margin:0px;margin-left:8px;&quot;&gt;id int&lt;/p&gt;&lt;p style=&quot;margin:0px;margin-left:8px;&quot;&gt;nom str&lt;/p&gt;&lt;p style=&quot;margin:0px;margin-left:8px;&quot;&gt;entreprise str&lt;/p&gt;&lt;p style=&quot;margin:0px;margin-left:8px;&quot;&gt;email str&lt;/p&gt;" style="verticalAlign=top;align=left;overflow=fill;html=1;whiteSpace=wrap;fontSize=17;" parent="1" vertex="1">
          <mxGeometry x="550" y="180" width="170" height="180" as="geometry" />
        </mxCell>
        <mxCell id="UebQi7isb6y4DzTPKjI_-9" value="&lt;p style=&quot;text-align: center; margin: 4px 0px 0px;&quot;&gt;&lt;i&gt;&lt;b&gt;&lt;font style=&quot;font-size: 17px;&quot;&gt;Candidat&lt;/font&gt;&lt;/b&gt;&lt;/i&gt;&lt;/p&gt;&lt;hr style=&quot;border-style:solid;&quot;&gt;&lt;p style=&quot;margin:0px;margin-left:4px;&quot;&gt;id int&lt;/p&gt;&lt;p style=&quot;margin:0px;margin-left:4px;&quot;&gt;nom str&lt;/p&gt;&lt;p style=&quot;margin:0px;margin-left:4px;&quot;&gt;email str&lt;/p&gt;&lt;p style=&quot;margin:0px;margin-left:4px;&quot;&gt;&lt;br&gt;&lt;/p&gt;&lt;hr style=&quot;border-style:solid;&quot;&gt;&lt;p style=&quot;margin:0px;margin-left:4px;&quot;&gt;id_recruteur&lt;/p&gt;" style="verticalAlign=top;align=left;overflow=fill;html=1;whiteSpace=wrap;fontSize=14;" parent="1" vertex="1">
          <mxGeometry x="60" y="180" width="220" height="170" as="geometry" />
        </mxCell>
        <mxCell id="UebQi7isb6y4DzTPKjI_-14" value="" style="endArrow=none;html=1;edgeStyle=orthogonalEdgeStyle;rounded=0;entryX=0;entryY=0.5;entryDx=0;entryDy=0;exitX=1;exitY=0.5;exitDx=0;exitDy=0;fontSize=15;fontStyle=1" parent="1" source="UebQi7isb6y4DzTPKjI_-9" target="UebQi7isb6y4DzTPKjI_-8" edge="1">
          <mxGeometry relative="1" as="geometry">
            <mxPoint x="310" y="284.5" as="sourcePoint" />
            <mxPoint x="470" y="284.5" as="targetPoint" />
          </mxGeometry>
        </mxCell>
        <mxCell id="UebQi7isb6y4DzTPKjI_-15" value="&lt;font style=&quot;font-size: 14px;&quot;&gt;&lt;b&gt;0..1&lt;/b&gt;&lt;/font&gt;" style="edgeLabel;resizable=0;html=1;align=left;verticalAlign=bottom;" parent="UebQi7isb6y4DzTPKjI_-14" connectable="0" vertex="1">
          <mxGeometry x="-1" relative="1" as="geometry">
            <mxPoint x="10" as="offset" />
          </mxGeometry>
        </mxCell>
        <mxCell id="UebQi7isb6y4DzTPKjI_-16" value="&lt;font style=&quot;font-size: 14px;&quot;&gt;&lt;b&gt;0..*&lt;/b&gt;&lt;/font&gt;" style="edgeLabel;resizable=0;html=1;align=right;verticalAlign=bottom;" parent="UebQi7isb6y4DzTPKjI_-14" connectable="0" vertex="1">
          <mxGeometry x="1" relative="1" as="geometry">
            <mxPoint x="-10" as="offset" />
          </mxGeometry>
        </mxCell>
      </root>
    </mxGraphModel>
  </diagram>
</mxfile>
